<?xml version="1.0" encoding="UTF-8"?>
<svg id="Layer_1" data-name="Layer 1" xmlns="http://www.w3.org/2000/svg" viewBox="0 0 31.88 32">
  <defs>
    <style>
      .cls-1 {
        fill: #898e68;
      }

      .cls-2, .cls-3, .cls-4 {
        stroke-linecap: round;
        stroke-linejoin: round;
      }

      .cls-2, .cls-3, .cls-4, .cls-5, .cls-6 {
        fill: none;
        stroke: #898e68;
      }

      .cls-2, .cls-6 {
        stroke-width: .02px;
      }

      .cls-3 {
        stroke-width: .03px;
      }

      .cls-4 {
        stroke-width: .03px;
      }

      .cls-5 {
        stroke-width: .07px;
      }

      .cls-5, .cls-6 {
        stroke-miterlimit: 10;
      }
    </style>
  </defs>
  <g>
    <g>
      <polygon class="cls-1" points="23.92 13.96 26.39 13.96 26.41 13.96 26.41 14.75 19.72 14.75 20.29 13.96 23.92 13.96"/>
      <polygon class="cls-1" points="17.53 14.15 23.22 6.23 24.3 6.23 24.3 5.44 26.41 5.44 20.29 13.96 19.25 13.96 19.25 14.75 17.1 14.75 17.1 14.75 17.11 14.75 17.11 14.73 17.52 14.16 17.53 14.15"/>
      <path class="cls-1" d="M26.39,12.51v1.45h-2.47c1.46-.13,2.17-.79,2.47-1.45h0Z"/>
      <polygon class="cls-1" points="24.3 5.44 24.3 6.23 23.22 6.23 23.79 5.44 24.3 5.44"/>
      <polygon class="cls-1" points="17.75 5.45 17.75 5.44 23.79 5.44 23.22 6.23 20.58 6.23 17.75 6.23 17.75 5.45"/>
      <path class="cls-1" d="M17.75,6.23h2.83c-1.11,.12-2.15,.74-2.7,1.49,0-.4,.03-.93-.21-1.45l.08-.04Z"/>
      <polygon class="cls-1" points="20.29 13.96 19.72 14.75 19.25 14.75 19.25 13.96 20.29 13.96"/>
      <path class="cls-1" d="M17.75,5.45v.78l-.08,.04c-.13-.29-.33-.57-.67-.82h.75Z"/>
      <path class="cls-1" d="M17.52,14.16l-.41,.57v-.62c.06,.24,.22,.23,.41,.05Z"/>
      <polygon class="cls-1" points="17.11 14.73 17.11 14.75 17.1 14.75 17.11 14.73"/>
      <path class="cls-1" d="M17.11,14.11v.62l-.02,.02h-2.12v-3.47c.23-.42,.43-.85,.59-1.26,.22-.54,.38-.86,.32-1.39h1.22v5.48Z"/>
      <path class="cls-1" d="M17.1,8.63h-1.21s-.01-.1-.02-.15c-.02,.06-.1,.09-.16,.11-.05,.01-.1,.03-.15,.04h-.57c-.13-1.02-.75-1.97-1.74-2.32-1.68-.6-3.49,.44-4.57,1.68-.63,.73-1.26,1.73-1.63,2.58v-.51c.85-2.07,2.59-3.86,4.8-4.41,.01,0,.03,0,.04,0,.03,0,.05-.01,.08-.02,.68-.15,1.39-.21,2.08-.16,.62,.05,1.24,.18,1.78,.48,.94,.53,1.26,1.68,1.27,2.69Z"/>
      <path class="cls-1" d="M15.89,8.63c.06,.53-.1,.85-.32,1.39-.16,.41-.37,.84-.59,1.26v-.97c.16-.35,.34-.77,.2-1.13,0-.01-.09,0-.2,.02v-.43c.06-.01,.12-.03,.19-.04,.13-.03,.26-.06,.38-.09h.34Z"/>
      <path class="cls-1" d="M15.89,8.63h-.34c.05-.01,.1-.03,.15-.04,.06-.02,.14-.04,.16-.11,0,.05,.02,.1,.02,.15Z"/>
      <path class="cls-1" d="M14.98,8.63h.57c-.13,.03-.26,.06-.38,.09-.06,.01-.12,.03-.19,.04v-.13h0Z"/>
      <path class="cls-1" d="M15.18,9.17c.14,.37-.04,.78-.2,1.13v-1.12c.11-.02,.2-.03,.2-.02Z"/>
      <path class="cls-1" d="M14.98,10.31v.97c-.25,.47-.54,.93-.84,1.32-.62,.81-1.39,1.55-2.37,1.9-.7,.25-1.52,.31-2.15-.14-.52-.36-.83-.99-.82-1.62,.01-.96,.75-1.77,1.48-2.31,.77-.57,1.66-.98,2.59-1.23,.7-.19,1.41-.29,2.11-.44v.43c-.24,.04-.62,.13-.67,.15-.3,.07-.59,.16-.87,.27-.29,.11-.56,.25-.83,.41-.63,.37-1.25,.81-1.71,1.4-.34,.44-.65,1.11-.27,1.62,.26,.34,.7,.44,1.11,.37,.5-.09,.96-.37,1.34-.68,.4-.33,.75-.72,1.1-1.1,.31-.33,.53-.72,.72-1.13,.03-.06,.05-.11,.08-.17Z"/>
      <polygon class="cls-1" points="7.05 10.56 7.05 14.75 4.92 14.75 4.92 7.01 4.92 5.45 4.92 5.44 7.05 5.44 7.05 10.05 7.05 10.56"/>
      <path class="cls-1" d="M4.92,5.45v1.55c-.28-.76-1.25-1.32-2.11-1.55h2.11Z"/>
    </g>
    <g>
      <path class="cls-4" d="M2.81,5.45c.85,.24,1.83,.79,2.11,1.55,.01,.03,.02,.06,.03,.09"/>
      <path class="cls-5" d="M14.98,8.76c-.7,.15-1.42,.25-2.11,.44-.92,.25-1.82,.66-2.59,1.23-.73,.54-1.47,1.34-1.48,2.31,0,.63,.31,1.25,.82,1.62,.63,.45,1.46,.39,2.15,.14,.97-.35,1.75-1.09,2.37-1.9,.3-.39,.58-.85,.84-1.32"/>
      <path class="cls-5" d="M15.89,8.63s-.01-.1-.02-.15c-.02,.06-.1,.09-.16,.11-.05,.01-.1,.03-.15,.04"/>
      <path class="cls-2" d="M17,5.45c.33,.25,.54,.53,.67,.82,.23,.52,.21,1.06,.21,1.45"/>
      <path class="cls-6" d="M17.87,7.72c.55-.75,1.59-1.38,2.7-1.49,.14-.01,.27-.02,.41-.02"/>
      <path class="cls-6" d="M6.98,10.23c.02-.06,.05-.12,.07-.18,.85-2.07,2.59-3.86,4.8-4.41,.01,0,.03,0,.04,0,.03,0,.05-.01,.08-.02,.68-.15,1.39-.21,2.08-.16,.62,.05,1.24,.18,1.78,.48,.94,.53,1.26,1.68,1.27,2.69"/>
      <path class="cls-6" d="M7.03,10.61s.01-.03,.02-.05c.37-.85,.99-1.85,1.63-2.58,1.08-1.24,2.89-2.28,4.57-1.68,.99,.35,1.61,1.3,1.74,2.32,0,.02,0,.05,0,.07"/>
      <polyline class="cls-2" points="26.39 13.96 26.39 13.96 26.39 12.51"/>
      <path class="cls-2" d="M26.39,12.5s0,0,0,0c-.3,.66-1.02,1.33-2.47,1.45-.16,.01-.33,.02-.51,.02"/>
      <path class="cls-4" d="M17.08,13.82c0,.12,.01,.22,.03,.29,.06,.24,.22,.23,.41,.05"/>
      <path class="cls-4" d="M4.92,5.45H2.81"/>
      <polyline class="cls-2" points="17 5.45 17.75 5.45 17.76 5.45"/>
    </g>
  </g>
  <g>
    <g>
      <path class="cls-1" d="M31.89,19.46c-.18,.13-.36,.26-.54,.39-2.03,1.42-4.32,2.63-6.75,2.87-.72,.07-1.45,.06-2.19-.06-.31-.05-.62-.12-.93-.2-1.34-.37-2.56-1.09-3.86-1.57-.1-.04-.21-.08-.32-.11,0,0-.01,0-.02,0-.09-.03-.18-.06-.28-.09-.02,0-.05-.01-.07-.02-.12-.04-.23-.07-.35-.11-.12-.03-.23-.07-.35-.1-.01,0-.03,0-.04-.01-.68-.18-1.37-.32-2.07-.42-.05,0-.11-.02-.16-.02,0,0,0,0,0,0-.26-.03-.55-.06-.83-.08-.09,0-.18-.01-.26-.02-.19-.01-.38-.02-.57-.03-.61-.02-1.22-.03-1.83,0-.06,0-.12,0-.17,0-.1,0-.2,.01-.3,.02-.78,.05-1.55,.15-2.3,.29,0,0,0,0,0,0-.73,.14-1.45,.34-2.16,.59,0,0-.01,0-.02,0-.02,0-.03,.01-.05,.02-.05,.02-.1,.04-.15,.06-.06,.02-.12,.05-.19,.07-.71,.28-1.4,.61-2.06,.99-.18,.1-.36,.21-.53,.32-.47,.3-.92,.62-1.36,.97-.36,.28-.91,.64-1.17,1.03,.08-.14,.17-.27,.26-.4,1.33-1.98,3.3-3.59,5.51-4.47,.47-.19,.96-.34,1.46-.45,.27-.06,.54-.12,.81-.16,.71-.11,1.52-.16,2.25-.15,.05,0,.1,0,.15,0,1.07,.03,2.14,.14,3.2,.32,.25,.04,.5,.09,.76,.14,.54,.11,1.08,.23,1.61,.37,.15,.04,.29,.08,.44,.12,.24,.07,.49,.14,.73,.21,1.38,.41,2.68,1.03,4.06,1.43,.11,.03,.23,.06,.34,.09,.33,.09,.67,.17,1.01,.24,.7,.14,1.42,.24,2.14,.27h0s.04,0,.06,0c.07,0,.14,0,.21,0,.41,.01,.82,0,1.22-.03,.1,0,.2-.02,.31-.03,2.08-.23,3.72-1.08,5.38-2.29Z"/>
      <path class="cls-1" d="M26.2,21.78c.1,0,.21-.02,.31-.03-.1,.01-.2,.02-.31,.03Z"/>
      <path class="cls-1" d="M26.2,21.78c-.41,.03-.81,.04-1.22,.03,.4,0,.82,0,1.22-.03Z"/>
      <path class="cls-1" d="M24.8,21.16s0,.06,0,.09c0,.19-.01,.37-.03,.55-.02,0-.04,0-.06,0,.02-.18,.06-.36,.06-.55-.68-.03-1.37-.12-2.09-.26-.03,0-.04-.01-.07-.02,0,.06,.02,.12,.02,.18,0,.13,0,.26-.02,.38-.01,0-.03,0-.04,0,0-.12,.01-.24,.01-.37,0-.06,0-.13,0-.19-.07-2.47-1.46-4.44-3.17-4.44-1.23,0-2.29,1.02-2.82,2.51,0,0,0,0-.01,0-.15-.04-.3-.08-.45-.12-.12-.03-.24-.06-.36-.09-.17-.41-.39-.79-.64-1.15,.98-1.37,2.54-2.25,4.28-2.25,2.98,0,5.39,2.57,5.39,5.74Z"/>
      <path class="cls-1" d="M24.77,21.8s-.04,0-.06,0h0s.04,0,.06,0Z"/>
      <path class="cls-1" d="M24.77,21.25c0,.19-.04,.37-.06,.55-.72-.03-1.43-.13-2.14-.27h0s.03,0,.04,0c0-.12,.02-.25,.02-.38,0-.06-.02-.12-.02-.18,.03,0,.04,.01,.07,.02,.72,.15,1.41,.23,2.09,.26Z"/>
      <path class="cls-1" d="M23.72,23.32c.23,0,.47,0,.7-.03-.79,2.11-2.74,3.6-5,3.6-1.74,0-3.3-.88-4.28-2.25,.68-.94,1.09-2.11,1.11-3.39,.04,2.51,1.44,4.53,3.17,4.53,1.25,0,2.33-1.06,2.85-2.59,.02,0,.05,0,.07,.01,.45,.07,.92,.11,1.39,.11Z"/>
      <path class="cls-1" d="M22.58,21.52h0c-.34-.06-.68-.14-1.01-.23,.33,.09,.68,.17,1.01,.23Z"/>
      <path class="cls-1" d="M17.62,20.9c-.11-.04-.21-.08-.32-.11,.11,.04,.22,.07,.32,.11Z"/>
      <path class="cls-1" d="M17.28,20.78c-.09-.03-.18-.06-.28-.09,.09,.03,.18,.06,.28,.09Z"/>
      <path class="cls-1" d="M17.01,20.69s-.05-.01-.07-.02c.02,0,.05,.01,.07,.02Z"/>
      <path class="cls-1" d="M16.59,20.56c-.1-.03-.21-.06-.31-.09-.01,0-.02,0-.03-.01,.11,.03,.23,.06,.35,.1Z"/>
      <path class="cls-1" d="M16.24,20.46s.02,0,.03,.01c-.02,.18-.03,.37-.03,.56,0,0,0,.02,0,.03,0,0,0-.02,0-.03,0-.13,0-.26-.02-.39,0-.06,.01-.12,.02-.19Z"/>
      <path class="cls-1" d="M16.24,21.07s0,.06,0,.09,0,.06,0,.09c0-.03,0-.06,0-.09s0-.06,0-.09Z"/>
      <path class="cls-1" d="M16.24,21.25h0c-.02,1.28-.43,2.45-1.11,3.39-.7-.97-1.11-2.17-1.11-3.49,0-.2,0-.39,.03-.58h0c.67,.09,1.34,.23,2.01,.41,.01,0,.02,0,.04,.01h.01s.01,0,.01,0c.04,.01,.04,.02,.07,.03,0,0-.01-.01-.01-.01,0-.13,.02-.25,.03-.37,.01,.13,.02,.26,.02,.39,0,0,0,.02,0,.03h0s0,.07,0,.1,0,.06,0,.09Z"/>
      <path class="cls-1" d="M16.2,20.45s.03,0,.04,.01c0,.06-.01,.12-.02,.19,0-.07-.01-.13-.02-.2Z"/>
      <path class="cls-1" d="M16.2,20.45c0,.07,.01,.13,.02,.2-.01,.12-.03,.25-.03,.37,0,0,.01,.01,.01,.01-.04-.01-.04-.02-.07-.03h-.01s-.01,0-.01,0c-.01,0-.03,0-.04-.01-.67-.18-1.34-.32-2.01-.41h0c.02-.18,.04-.37,.08-.55,.7,.1,1.39,.24,2.07,.42Z"/>
      <path class="cls-1" d="M15.13,17.67c.25,.35,.47,.74,.64,1.15-.4-.1-.79-.19-1.16-.26,.15-.31,.32-.61,.52-.88Z"/>
      <path class="cls-1" d="M15.13,17.67c-.2,.28-.37,.57-.52,.88-.04,0-.07-.01-.11-.02-.25-.05-.51-.1-.77-.15-.12-.02-.24-.04-.36-.06-.58-1.1-1.49-1.8-2.51-1.8-.97,0-1.83,.63-2.42,1.63-.11,.19-.21,.39-.3,.6-.03,0-.06,0-.09,.01,.09-.21,.23-.43,.34-.62-.13,.01-.2,.04-.33,.06-.31,.05-.63,.11-.95,.18-.38,.09-.72,.18-1.09,.31-.1,.22-.17,.45-.24,.68-.02,0-.04,.01-.06,.02,.07-.23,.16-.46,.25-.68,.86-1.95,2.72-3.29,4.88-3.29,1.75,0,3.3,.88,4.28,2.25Z"/>
      <path class="cls-1" d="M14.02,21.16c0,1.31,.41,2.52,1.11,3.49-.98,1.37-2.54,2.25-4.28,2.25-2.9,0-5.26-2.44-5.38-5.49,0-.08,0-.16,0-.25,0-.12,0-.23,.01-.35,.02,0,.03-.01,.05-.02,0,.11-.01,.25-.01,.36,0,.08,0,.17,0,.25,.06-.02,.08-.05,.15-.07h.01s.03-.02,.05-.02c.63-.23,1.25-.42,1.92-.55,.01-.19,.02-.37,.05-.56,.02,0,.04,0,.05-.01-.03,.19-.05,.38-.06,.58,0,.13-.01,.26-.01,.4,0,2.56,1.42,4.63,3.17,4.63s3.17-2.07,3.17-4.63Z"/>
      <path class="cls-1" d="M13.96,20.01c.06,0,.11,.01,.16,.02-.03,.18-.06,.36-.08,.55-.02,0,0,0-.02-.01-.02-.19-.04-.38-.07-.56Z"/>
      <path class="cls-1" d="M14.03,20.56s0,0,.02,.01c-.02,.19-.03,.39-.03,.58,0-.2,0-.4-.03-.59s-.04-.38-.07-.57c.01,0,.03,0,.04,0,.03,.18,.05,.37,.07,.56Z"/>
      <path class="cls-1" d="M13.96,20s0,0,0,0c-.01,0-.03,0-.04,0-.26-.03-.53-.06-.79-.08,.28,.02,.56,.05,.83,.08Z"/>
      <path class="cls-1" d="M13.13,19.92c-.09,0-.17-.01-.26-.02,.09,0,.17,.01,.26,.02Z"/>
      <path class="cls-1" d="M10.47,19.87c-.06,0-.12,0-.17,0,.06,0,.12,0,.17,0Z"/>
      <path class="cls-1" d="M10.29,18.61c-.73,0-1.53,.05-2.25,.15,.03,0,.06-.01,.09-.01,.71-.11,1.43-.15,2.15-.14Z"/>
      <path class="cls-1" d="M8.06,18.2c.12-.02,.2-.05,.33-.06-.11,.19-.25,.41-.34,.62-.27,.04-.54,.1-.81,.16-.5,.12-.98,.27-1.46,.45,.07-.23,.14-.46,.24-.68,.37-.13,.71-.22,1.09-.31,.32-.07,.64-.13,.95-.18Z"/>
      <path class="cls-1" d="M9.99,19.9c-.75,.05-1.5,.14-2.24,.29-.02,0-.04,0-.05,.01,0,0,0,0,0,0,.75-.15,1.52-.24,2.3-.29Z"/>
      <path class="cls-1" d="M7.69,20.2c-.03,.18-.04,.37-.05,.56-.68,.14-1.29,.33-1.92,.55-.02,0-.03,.01-.05,.02h-.01c-.07,.03-.08,.05-.15,.08,0-.08,0-.16,0-.25,0-.12,0-.25,.01-.36,0,0,.01,0,.02,0,.7-.25,1.43-.45,2.16-.59Z"/>
      <path class="cls-1" d="M5.72,19.4s.04-.01,.06-.02c-2.21,.88-4.17,2.49-5.51,4.47,1.33-1.98,3.25-3.57,5.45-4.45Z"/>
      <path class="cls-1" d="M5.32,20.87c-.06,.02-.12,.05-.19,.07,.06-.02,.12-.05,.19-.07Z"/>
      <path class="cls-1" d="M5.14,20.94c-.7,.28-1.41,.61-2.06,.99,.66-.38,1.35-.71,2.06-.99Z"/>
    </g>
    <g>
      <path class="cls-3" d="M24.98,21.81c.4,0,.82,0,1.22-.03,.1,0,.21-.02,.31-.03"/>
      <path class="cls-3" d="M21.57,21.29c.33,.09,.68,.17,1.01,.23,.01,0,.03,0,.04,0,0-.12,.02-.25,.02-.38,0-.06-.02-.12-.02-.18,.03,0,.04,.01,.07,.02,.72,.15,1.41,.23,2.09,.26,0,.19-.04,.37-.06,.55"/>
      <path class="cls-3" d="M5.78,19.37c.07-.23,.14-.46,.24-.68,.37-.13,.71-.22,1.09-.31,.32-.07,.64-.13,.95-.18,.12-.02,.2-.05,.33-.06-.11,.19-.25,.41-.34,.62"/>
      <path class="cls-3" d="M5.32,20.87c-.06,.02-.12,.05-.19,.07-.7,.28-1.41,.61-2.06,.99"/>
      <path class="cls-3" d="M7.69,20.2c-.03,.18-.04,.37-.05,.56-.68,.14-1.29,.33-1.92,.55-.02,0-.03,.01-.05,.02h-.01c-.07,.03-.08,.05-.15,.08,0-.08,0-.16,0-.25,0-.12,0-.25,.01-.36"/>
      <path class="cls-3" d="M16.24,20.46c0,.06-.01,.12-.02,.19-.01,.12-.03,.25-.03,.37,0,0,.01,.01,.01,.01-.04-.01-.04-.02-.07-.03h-.01s-.01,0-.01,0c-.01,0-.03,0-.04-.01-.67-.18-1.34-.32-2.01-.41h0s0,0-.02-.01c-.02-.19-.04-.38-.07-.56"/>
      <path class="cls-3" d="M17.01,20.69s-.05-.01-.07-.02"/>
      <path class="cls-3" d="M26.51,21.75c2.08-.23,3.72-1.08,5.38-2.29-.18,.13-.36,.26-.54,.39-2.03,1.42-4.32,2.63-6.75,2.87-.72,.07-1.45,.06-2.19-.06-.31-.05-.62-.12-.93-.2-1.34-.37-2.56-1.09-3.86-1.57-.11-.04-.21-.08-.32-.11,0,0-.01,0-.02,0-.09-.03-.18-.06-.28-.09-.02,0-.05-.01-.07-.02-.12-.04-.23-.07-.35-.11-.1-.03-.21-.06-.31-.09-.01,0-.02,0-.03-.01-.01,0-.03,0-.04-.01-.68-.18-1.37-.32-2.07-.42-.05,0-.11-.02-.16-.02-.01,0-.03,0-.04,0-.26-.03-.53-.06-.79-.08-.09,0-.17-.01-.26-.02-.19-.01-.38-.02-.57-.03-.61-.02-1.22-.03-1.83,0-.06,0-.12,0-.17,0-.1,0-.2,.01-.3,.02-.75,.05-1.5,.14-2.24,.29-.02,0-.04,0-.05,.01-.73,.14-1.45,.34-2.16,.59,0,0-.01,0-.02,0-.02,0-.03,.01-.05,.02-.05,.02-.1,.04-.15,.06-.06,.02-.12,.05-.19,.07-.71,.28-1.4,.61-2.06,.99-.18,.1-.36,.21-.53,.32-.47,.3-.92,.62-1.36,.97-.36,.28-.91,.64-1.17,1.03,.08-.14,.17-.27,.26-.4,1.33-1.98,3.25-3.57,5.45-4.45,.02,0,.04-.01,.06-.02,.47-.19,.96-.34,1.46-.45,.27-.06,.54-.12,.81-.16,.03,0,.06-.01,.09-.01,.71-.11,1.43-.15,2.15-.14,.05,0,.1,0,.15,0,1.07,.03,2.14,.14,3.2,.32,.25,.04,.5,.09,.76,.14,.54,.11,1.08,.23,1.61,.37,.15,.04,.29,.08,.44,.12,.24,.07,.49,.14,.73,.21,1.38,.41,2.68,1.03,4.06,1.43,.11,.03,.23,.06,.34,.09,.33,.09,.67,.17,1.01,.24,.7,.14,1.42,.24,2.14,.27,.02,0,.04,0,.06,0,.07,0,.14,0,.21,0,.41,.01,.82,0,1.22-.03,.1,0,.2-.02,.31-.03Z"/>
    </g>
  </g>
</svg>